<svg xmlns="http://www.w3.org/2000/svg" xmlns:xlink="http://www.w3.org/1999/xlink" width="32" height="128" viewBox="0 0 32 128"><svg class="icon" width="32" height="32" viewBox="0 0 1024 1024" id="svg1" y="0"><path fill="#d81e06" d="M433.152 511.99a77.773 77.773 0 1 0 155.546 0 77.773 77.773 0 1 0-155.546 0zm-216.883 0a77.773 77.773 0 1 0 155.545 0 77.773 77.773 0 1 0-155.545 0zm435.2 0a77.773 77.773 0 1 0 155.545 0 77.773 77.773 0 1 0-155.545 0zM510.935 10.24C233.82 10.24 9.175 234.885 9.175 512c0 277.105 224.645 501.75 501.76 501.75 277.105 0 501.76-224.645 501.76-501.75S788.04 10.24 510.935 10.24zm0 950.815C262.912 961.055 61.88 760.023 61.88 512c0-248.013 201.032-449.055 449.055-449.055S959.99 263.987 959.99 512c0 248.023-201.032 449.055-449.055 449.055z"></path></svg><svg class="icon" width="32" height="32" viewBox="0 0 1024 1024" id="svg2" y="32"><path fill="#d81e06" d="M621.711 582.42l-5.283 4.68c54.538-61.716 87.695-142.766 87.695-231.618 0-193.3-156.703-350.004-349.993-350.004S4.127 162.181 4.127 355.482 160.829 705.485 354.13 705.485a348.283 348.283 0 0 0 201.011-63.56l317.491 358.103 66.786-59.228L621.71 582.42zM354.13 631.89c-152.648 0-276.398-123.74-276.398-276.408 0-152.648 123.75-276.409 276.398-276.409 152.658 0 276.408 123.76 276.408 276.409 0 152.668-123.74 276.408-276.408 276.408z"></path></svg><svg class="icon" width="32" height="32" viewBox="0 0 1024 1024" id="svg3" y="64"><path fill="#d81e06" d="M536.095 34.95C266.65 34.95 48.2 223.57 48.2 456.283c0 75.715 23.244 146.709 63.733 208.108L20.48 825.446l244.193-19.036c77.61 44.954 170.957 71.199 271.422 71.199C805.55 877.609 1024 688.978 1024 456.274S805.55 34.949 536.095 34.949z"></path></svg><svg class="icon" width="32" height="32" viewBox="0 0 1024 1024" id="svg4" y="96"><path fill="#d81e06" d="M162.499 72.98l193.239 230.001s-49.03 94.556 0 206.142c53.38 121.425 139.417 265.44 323.471 221.286l191.857 229.816s-228.178 152.546-485.858-83.036C127.55 641.64-25.222 253.338 162.498 72.98zm206.5 216.72L176.731 59.996l53.607-44.81 192.184 229.601zm516.556 659.743L694.13 719.104l53.75-44.585 191.344 230.236z"></path></svg></svg>