<svg class="icon" width="32" height="32" viewBox="0 0 1024 1024" xmlns="http://www.w3.org/2000/svg"><path fill="#d81e06" d="M433.152 511.99a77.773 77.773 0 1 0 155.546 0 77.773 77.773 0 1 0-155.546 0zm-216.883 0a77.773 77.773 0 1 0 155.545 0 77.773 77.773 0 1 0-155.545 0zm435.2 0a77.773 77.773 0 1 0 155.545 0 77.773 77.773 0 1 0-155.545 0zM510.935 10.24C233.82 10.24 9.175 234.885 9.175 512c0 277.105 224.645 501.75 501.76 501.75 277.105 0 501.76-224.645 501.76-501.75S788.04 10.24 510.935 10.24zm0 950.815C262.912 961.055 61.88 760.023 61.88 512c0-248.013 201.032-449.055 449.055-449.055S959.99 263.987 959.99 512c0 248.023-201.032 449.055-449.055 449.055z"/></svg>