<svg class="icon" width="32" height="32" viewBox="0 0 1024 1024" xmlns="http://www.w3.org/2000/svg"><path fill="#d81e06" d="M621.711 582.42l-5.283 4.68c54.538-61.716 87.695-142.766 87.695-231.618 0-193.3-156.703-350.004-349.993-350.004S4.127 162.181 4.127 355.482 160.829 705.485 354.13 705.485a348.283 348.283 0 0 0 201.011-63.56l317.491 358.103 66.786-59.228L621.71 582.42zM354.13 631.89c-152.648 0-276.398-123.74-276.398-276.408 0-152.648 123.75-276.409 276.398-276.409 152.658 0 276.408 123.76 276.408 276.409 0 152.668-123.74 276.408-276.408 276.408z"/></svg>