<?xml version="1.0" standalone="no"?><!DOCTYPE svg PUBLIC "-//W3C//DTD SVG 1.1//EN" "http://www.w3.org/Graphics/SVG/1.1/DTD/svg11.dtd"><svg class="icon" width="32px" height="32.00px" viewBox="0 0 1024 1024" version="1.1" xmlns="http://www.w3.org/2000/svg"><path fill="#f76707" d="M621.71136 582.42048l-5.28384 4.67968c54.53824-61.71648 87.69536-142.76608 87.69536-231.61856 0-193.30048-156.70272-350.0032-349.99296-350.0032S4.12672 162.18112 4.12672 355.4816s156.70272 350.0032 350.0032 350.0032a348.28288 348.28288 0 0 0 201.0112-63.55968l317.4912 358.10304 66.78528-59.22816-317.70624-358.37952z m-267.58144 49.46944c-152.64768 0-276.39808-123.74016-276.39808-276.40832 0-152.64768 123.7504-276.40832 276.39808-276.40832 152.65792 0 276.40832 123.76064 276.40832 276.40832 0 152.66816-123.74016 276.40832-276.40832 276.40832z" /></svg>