<?xml version="1.0" standalone="no"?><!DOCTYPE svg PUBLIC "-//W3C//DTD SVG 1.1//EN" "http://www.w3.org/Graphics/SVG/1.1/DTD/svg11.dtd"><svg class="icon" width="200px" height="200.00px" viewBox="0 0 1024 1024" version="1.1" xmlns="http://www.w3.org/2000/svg"><path fill="#333333" d="M510.9248 511.98976m-77.7728 0a77.7728 77.7728 0 1 0 155.5456 0 77.7728 77.7728 0 1 0-155.5456 0ZM294.0416 511.98976m-77.7728 0a77.7728 77.7728 0 1 0 155.5456 0 77.7728 77.7728 0 1 0-155.5456 0ZM729.2416 511.98976m-77.7728 0a77.7728 77.7728 0 1 0 155.5456 0 77.7728 77.7728 0 1 0-155.5456 0ZM510.93504 10.24c-277.11488 0-501.76 224.64512-501.76 501.76 0 277.10464 224.64512 501.74976 501.76 501.74976 277.10464 0 501.76-224.64512 501.76-501.74976 0-277.10464-224.65536-501.76-501.76-501.76z m0 950.81472C262.912 961.05472 61.88032 760.02304 61.88032 512c0-248.0128 201.03168-449.05472 449.05472-449.05472S959.98976 263.9872 959.98976 512c0 248.02304-201.03168 449.05472-449.05472 449.05472z" /></svg>